<svg width="19" height="26" viewBox="0 0 19 26" fill="none" xmlns="http://www.w3.org/2000/svg">
<path d="M9.87479 22.598L9.5 22.4465L9.12521 22.598L3.54736 24.8529C3.54677 24.8531 3.54617 24.8533 3.54558 24.8536C2.93788 25.0961 2.40131 25.0421 1.82436 24.6544C1.25155 24.2696 1 23.7932 1 23.1293V3.5751C1 3.04562 1.17386 2.62796 1.53836 2.26345C1.90286 1.89895 2.32052 1.7251 2.85 1.7251H16.15C16.6795 1.7251 17.0971 1.89895 17.4616 2.26345C17.8261 2.62796 18 3.04562 18 3.5751V23.1293C18 23.7932 17.7485 24.2696 17.1756 24.6544C16.5987 25.0421 16.0621 25.0961 15.4544 24.8536C15.4538 24.8533 15.4532 24.8531 15.4526 24.8529L9.87479 22.598Z" fill="#D0CFCF" stroke="white" stroke-width="2"/>
</svg>
