<svg width="18" height="18" viewBox="0 0 18 18" fill="none" xmlns="http://www.w3.org/2000/svg">
<mask id="mask0_4975_1880" style="mask-type:alpha" maskUnits="userSpaceOnUse" x="0" y="0" width="18" height="18">
<rect width="18" height="18" fill="#D9D9D9"/>
</mask>
<g mask="url(#mask0_4975_1880)">
<path d="M9 13.5002L6.35625 14.5689C5.91875 14.7439 5.5 14.6971 5.1 14.4283C4.7 14.1596 4.5 13.7877 4.5 13.3127V4.0502C4.5 3.6752 4.63125 3.35645 4.89375 3.09395C5.15625 2.83145 5.475 2.7002 5.85 2.7002H12.15C12.525 2.7002 12.8438 2.83145 13.1062 3.09395C13.3687 3.35645 13.5 3.6752 13.5 4.0502V13.3127C13.5 13.7877 13.3 14.1596 12.9 14.4283C12.5 14.6971 12.0812 14.7439 11.6437 14.5689L9 13.5002Z" fill="#FD6B36"/>
</g>
</svg>
