<svg width="20" height="20" viewBox="0 0 20 20" fill="none" xmlns="http://www.w3.org/2000/svg">
<path d="M9.99364 11.3618L5.63505 15.7204C5.44015 15.9153 5.21868 16.0083 4.97063 15.9994C4.72258 15.9906 4.50111 15.8887 4.30621 15.6938C4.11131 15.4989 4.01387 15.273 4.01387 15.0161C4.01387 14.7592 4.11131 14.5333 4.30621 14.3384L8.63823 10.0064L4.27963 5.64776C4.08474 5.45286 3.99172 5.22696 4.00058 4.97005C4.00944 4.71314 4.11131 4.48724 4.30621 4.29234C4.50111 4.09745 4.72701 4 4.98392 4C5.24083 4 5.46673 4.09745 5.66163 4.29234L9.99364 8.65094L14.3522 4.29234C14.5471 4.09745 14.773 4 15.0299 4C15.2869 4 15.5128 4.09745 15.7077 4.29234C15.9026 4.48724 16 4.71314 16 4.97005C16 5.22696 15.9026 5.45286 15.7077 5.64776L11.3491 10.0064L15.7077 14.3649C15.9026 14.5598 16 14.7813 16 15.0294C16 15.2774 15.9026 15.4989 15.7077 15.6938C15.5128 15.8887 15.2869 15.9861 15.0299 15.9861C14.773 15.9861 14.5471 15.8887 14.3522 15.6938L9.99364 11.3618Z" fill="#FD6B36"/>
</svg>
