<svg width="24" height="25" viewBox="0 0 24 25" fill="none" xmlns="http://www.w3.org/2000/svg">
<mask id="mask0_3271_16118" style="mask-type:alpha" maskUnits="userSpaceOnUse" x="0" y="0" width="24" height="25">
<rect y="0.5" width="24" height="24" fill="#D9D9D9"/>
</mask>
<g mask="url(#mask0_3271_16118)">
<path d="M12 15.4504C11.8667 15.4504 11.7417 15.4296 11.625 15.3879C11.5084 15.3462 11.4 15.2754 11.3 15.1754L6.70005 10.5754C6.51672 10.3921 6.42505 10.1587 6.42505 9.87539C6.42505 9.59206 6.51672 9.35872 6.70005 9.17539C6.88338 8.99206 7.11672 8.90039 7.40005 8.90039C7.68338 8.90039 7.91672 8.99206 8.10005 9.17539L12 13.0754L15.9 9.17539C16.0834 8.99206 16.3167 8.90039 16.6 8.90039C16.8834 8.90039 17.1167 8.99206 17.3 9.17539C17.4834 9.35872 17.575 9.59206 17.575 9.87539C17.575 10.1587 17.4834 10.3921 17.3 10.5754L12.7 15.1754C12.6 15.2754 12.4917 15.3462 12.375 15.3879C12.2584 15.4296 12.1334 15.4504 12 15.4504Z" fill="#717070"/>
</g>
</svg>
