<svg width="80" height="80" viewBox="0 0 80 80" fill="none" xmlns="http://www.w3.org/2000/svg">
<circle cx="40" cy="40" r="39.5" fill="white" stroke="#F2F2F2"/>
<g clip-path="url(#clip0_69_4925)">
<path d="M55.971 40.3866C55.971 38.9566 55.8623 37.9132 55.627 36.8311H40.3259V43.2851H49.3073C49.1263 44.889 48.1485 47.3044 45.9755 48.9275L45.945 49.1436L50.783 53.1431L51.1181 53.1788C54.1964 50.145 55.971 45.6812 55.971 40.3866" fill="#4285F4"/>
<path d="M40.325 57.3911C44.7252 57.3911 48.4191 55.8452 51.1172 53.1786L45.9746 48.9273C44.5984 49.9514 42.7514 50.6664 40.325 50.6664C36.0154 50.6664 32.3577 47.6327 31.0538 43.4395L30.8627 43.4568L25.8321 47.6114L25.7664 47.8065C28.4463 53.4877 33.951 57.3911 40.325 57.3911Z" fill="#34A853"/>
<path d="M31.0548 43.4394C30.7108 42.3573 30.5116 41.1978 30.5116 39.9998C30.5116 38.8017 30.7108 37.6423 31.0367 36.5602L31.0276 36.3297L25.934 32.1084L25.7674 32.193C24.6628 34.5505 24.0291 37.1979 24.0291 39.9998C24.0291 42.8017 24.6628 45.449 25.7674 47.8065L31.0548 43.4394" fill="#FBBC05"/>
<path d="M40.325 29.333C43.3852 29.333 45.4495 30.7436 46.6265 31.9224L51.2259 27.1301C48.4011 24.3282 44.7252 22.6084 40.325 22.6084C33.9511 22.6084 28.4463 26.5117 25.7664 32.1929L31.0357 36.5601C32.3577 32.3668 36.0154 29.333 40.325 29.333" fill="#EB4335"/>
</g>
<defs>
<clipPath id="clip0_69_4925">
<rect width="33.0435" height="34.7826" fill="white" transform="translate(23.4783 22.6084)"/>
</clipPath>
</defs>
</svg>
