<svg width="80" height="80" viewBox="0 0 80 80" fill="none" xmlns="http://www.w3.org/2000/svg">
<circle cx="40" cy="40" r="40" fill="#FEE500"/>
<path d="M40.1156 19.3047C27.6708 19.3047 17.6346 27.3335 17.6346 37.0806C17.6346 43.4074 21.8097 48.9474 28.0722 52.1108L25.9526 60.0274C25.9126 60.146 25.9065 60.2734 25.9349 60.3953C25.9632 60.5173 26.025 60.6289 26.1132 60.7178C26.2418 60.8312 26.4073 60.894 26.5789 60.8944C26.7211 60.883 26.856 60.8268 26.9643 60.7338L36.0851 54.5837C37.4315 54.7696 38.7886 54.866 40.1478 54.8727C52.5765 54.8727 62.6287 46.8438 62.6287 37.0806C62.6287 27.3175 52.5444 19.3047 40.1156 19.3047Z" fill="#392020"/>
<path d="M25.5023 34.2705H23.0454C22.7409 34.2793 22.4402 34.2013 22.1783 34.0456C22.062 33.9728 21.9621 33.8767 21.8847 33.7634C21.8073 33.6501 21.7542 33.522 21.7287 33.3872C21.7209 33.3017 21.7209 33.2159 21.7287 33.1304C21.7211 32.9705 21.7521 32.811 21.8192 32.6657C21.8863 32.5203 21.9874 32.3933 22.1141 32.2954C22.394 32.0926 22.7319 31.9855 23.0775 31.9902H30.4802C30.7871 31.9794 31.0899 32.0635 31.3473 32.2311C31.4663 32.3007 31.5684 32.396 31.6462 32.5098C31.7239 32.6237 31.7754 32.7533 31.797 32.8895C31.8048 32.9696 31.8048 33.0503 31.797 33.1304C31.8045 33.2926 31.7736 33.4543 31.7066 33.6022C31.6396 33.7502 31.5385 33.88 31.4116 33.9813C31.1384 34.1838 30.8038 34.286 30.4642 34.2705H28.0876V42.7169C28.0973 42.8969 28.0694 43.0768 28.0058 43.2454C27.9422 43.414 27.8443 43.5676 27.7183 43.6964C27.5974 43.8196 27.4521 43.9161 27.2917 43.9797C27.1313 44.0433 26.9593 44.0726 26.7869 44.0657C26.4853 44.0743 26.1902 43.9779 25.9519 43.7929C25.7251 43.6121 25.5711 43.3554 25.5183 43.0701C25.5025 42.9529 25.5025 42.8341 25.5183 42.7169L25.5023 34.2705Z" fill="#FEE500"/>
<path d="M32.5058 32.6168C32.5764 32.3526 32.7423 32.1237 32.9714 31.9744C33.2156 31.836 33.4939 31.7693 33.7743 31.7818H34.3845C34.6821 31.7711 34.9767 31.8434 35.2356 31.9905C35.5099 32.175 35.7048 32.4558 35.7816 32.7773L38.9931 41.8501C39.0764 42.0868 39.1461 42.3281 39.2019 42.5728C39.2074 42.6744 39.2074 42.7762 39.2019 42.8778C39.2073 43.0343 39.1785 43.1901 39.1175 43.3343C39.0565 43.4785 38.9647 43.6077 38.8486 43.7128C38.7361 43.8281 38.601 43.919 38.4519 43.9798C38.3027 44.0406 38.1425 44.0699 37.9815 44.0661C37.7338 44.0907 37.4851 44.0313 37.2753 43.8973C37.0656 43.7633 36.9071 43.5625 36.8253 43.3275L36.1509 41.3524H31.9277L31.2533 43.3275C31.1735 43.5672 31.013 43.7718 30.7993 43.9065C30.5855 44.0412 30.3317 44.0976 30.081 44.0661C29.8095 44.0732 29.5435 43.9882 29.3263 43.8251C29.1147 43.6569 28.9719 43.4171 28.9249 43.1508C28.9163 43.06 28.9163 42.9686 28.9249 42.8778C28.8973 42.7184 28.8973 42.5556 28.9249 42.3962C28.9249 42.2195 29.0373 42.0267 29.1015 41.8501L32.5058 32.6168ZM34.1115 34.7205L32.586 39.5378H35.621L34.1115 34.7205Z" fill="#FEE500"/>
<path d="M39.5696 33.1306C39.5533 32.7702 39.6803 32.4181 39.9229 32.1511C40.0462 32.0267 40.1943 31.9295 40.3574 31.8659C40.5206 31.8023 40.6954 31.7735 40.8703 31.7816C41.1711 31.7781 41.4647 31.8741 41.7053 32.0547C41.9284 32.243 42.0765 32.505 42.1228 32.7933C42.1386 32.9051 42.1386 33.0188 42.1228 33.1306V41.5771H46.5387C46.8448 41.5731 47.1457 41.6565 47.4059 41.8178C47.5228 41.8899 47.6232 41.9858 47.7007 42.0993C47.7781 42.2127 47.8309 42.3411 47.8555 42.4762C47.8555 42.4762 47.8555 42.6368 47.8555 42.7171C47.8631 42.877 47.8321 43.0363 47.765 43.1817C47.6979 43.327 47.5967 43.4542 47.4701 43.5521C47.1901 43.7549 46.8523 43.8618 46.5066 43.8572H41.0791C40.7334 43.8794 40.3898 43.7894 40.0995 43.6004C39.8399 43.4062 39.6669 43.1179 39.6178 42.7975C39.606 42.621 39.606 42.4439 39.6178 42.2674L39.5696 33.1306Z" fill="#FEE500"/>
<path d="M48.1448 33.1304C48.1352 32.7711 48.2613 32.4214 48.4981 32.1509C48.7387 31.9323 49.0474 31.8031 49.3722 31.7856C49.6969 31.768 50.0177 31.863 50.2805 32.0545C50.5084 32.2412 50.6622 32.5031 50.7141 32.7931C50.722 32.9054 50.722 33.0182 50.7141 33.1304V37.0645L54.7767 32.3756C54.9332 32.2156 55.0995 32.0656 55.2745 31.9261C55.4394 31.8279 55.6285 31.7777 55.8205 31.7814C56.1011 31.7799 56.3756 31.864 56.6073 32.0224C56.7165 32.0959 56.8097 32.1907 56.8814 32.3011C56.9532 32.4115 57.0019 32.5351 57.0248 32.6647C57.0313 32.6965 57.0313 32.7294 57.0248 32.7611C57.017 32.7982 57.017 32.8364 57.0248 32.8735C57.0242 33.0424 56.98 33.2085 56.8963 33.3553C56.8111 33.5107 56.7088 33.656 56.5912 33.7887L53.9256 36.7113L57.1372 41.6892V41.8498C57.3039 42.0799 57.434 42.3346 57.5226 42.6046V42.6848C57.5412 42.8708 57.5143 43.0587 57.4444 43.2321C57.3745 43.4055 57.2636 43.5592 57.1211 43.6804C56.8533 43.8828 56.5255 43.9903 56.1898 43.9856C55.9667 43.9948 55.7451 43.9448 55.5475 43.8409C55.3336 43.6975 55.1574 43.5048 55.0336 43.2789L52.0469 38.4616L50.6177 39.955V42.6366C50.6273 42.9959 50.5012 43.3456 50.2644 43.6161C50.1375 43.7401 49.9866 43.837 49.8209 43.9005C49.6552 43.964 49.4783 43.993 49.301 43.9856C49.0047 43.9918 48.7153 43.8953 48.482 43.7125C48.2552 43.5317 48.1012 43.2752 48.0485 42.99C48.0326 42.8728 48.0326 42.7538 48.0485 42.6366L48.1448 33.1304Z" fill="#FEE500"/>
</svg>
