<svg width="26" height="27" viewBox="0 0 26 27" fill="none" xmlns="http://www.w3.org/2000/svg">
<mask id="mask0_4966_2914" style="mask-type:alpha" maskUnits="userSpaceOnUse" x="0" y="0" width="26" height="27">
<rect y="0.5" width="26" height="26" fill="#D9D9D9"/>
</mask>
<g mask="url(#mask0_4966_2914)">
<path d="M11.4833 15.4493L9.15413 13.1202C8.95551 12.9216 8.70274 12.8223 8.39579 12.8223C8.08885 12.8223 7.83607 12.9216 7.63746 13.1202C7.43885 13.3188 7.33954 13.5716 7.33954 13.8785C7.33954 14.1855 7.43885 14.4382 7.63746 14.6368L10.725 17.7243C10.9416 17.941 11.1944 18.0493 11.4833 18.0493C11.7722 18.0493 12.025 17.941 12.2416 17.7243L18.3625 11.6035C18.5611 11.4049 18.6604 11.1521 18.6604 10.8452C18.6604 10.5382 18.5611 10.2855 18.3625 10.0868C18.1638 9.88824 17.9111 9.78893 17.6041 9.78893C17.2972 9.78893 17.0444 9.88824 16.8458 10.0868L11.4833 15.4493ZM13 24.3327C11.5013 24.3327 10.093 24.0483 8.77496 23.4796C7.4569 22.9108 6.31038 22.1389 5.33538 21.1639C4.36038 20.1889 3.5885 19.0424 3.01975 17.7243C2.451 16.4063 2.16663 14.998 2.16663 13.4993C2.16663 12.0007 2.451 10.5924 3.01975 9.27435C3.5885 7.95629 4.36038 6.80977 5.33538 5.83477C6.31038 4.85977 7.4569 4.08789 8.77496 3.51914C10.093 2.95039 11.5013 2.66602 13 2.66602C14.4986 2.66602 15.9069 2.95039 17.225 3.51914C18.543 4.08789 19.6895 4.85977 20.6645 5.83477C21.6395 6.80977 22.4114 7.95629 22.9802 9.27435C23.5489 10.5924 23.8333 12.0007 23.8333 13.4993C23.8333 14.998 23.5489 16.4063 22.9802 17.7243C22.4114 19.0424 21.6395 20.1889 20.6645 21.1639C19.6895 22.1389 18.543 22.9108 17.225 23.4796C15.9069 24.0483 14.4986 24.3327 13 24.3327ZM13 22.166C15.4194 22.166 17.4687 21.3264 19.1479 19.6473C20.827 17.9681 21.6666 15.9188 21.6666 13.4993C21.6666 11.0799 20.827 9.0306 19.1479 7.35143C17.4687 5.67227 15.4194 4.83268 13 4.83268C10.5805 4.83268 8.53121 5.67227 6.85204 7.35143C5.17288 9.0306 4.33329 11.0799 4.33329 13.4993C4.33329 15.9188 5.17288 17.9681 6.85204 19.6473C8.53121 21.3264 10.5805 22.166 13 22.166Z" fill="#A0A09F"/>
</g>
</svg>
