<svg width="20" height="20" viewBox="0 0 20 20" fill="none" xmlns="http://www.w3.org/2000/svg">
<path d="M8.35417 16.6712C7.0625 16.324 6.01389 15.6296 5.20833 14.5879C4.40278 13.5462 4 12.3587 4 11.0254C4 10.3171 4.10417 9.63303 4.3125 8.97331C4.52083 8.31359 4.84722 7.71984 5.29167 7.19206C5.43056 7.03928 5.60417 6.96636 5.8125 6.97331C6.02083 6.98025 6.20139 7.06011 6.35417 7.21289C6.49306 7.35178 6.5625 7.52192 6.5625 7.72331C6.5625 7.9247 6.5 8.10178 6.375 8.25456C6.06944 8.65734 5.84722 9.09831 5.70833 9.57747C5.56944 10.0566 5.5 10.5462 5.5 11.0462C5.5 12.0323 5.79514 12.9108 6.38542 13.6816C6.97569 14.4525 7.74306 14.9768 8.6875 15.2546C8.85417 15.3101 8.98958 15.4004 9.09375 15.5254C9.19792 15.6504 9.25 15.7962 9.25 15.9629C9.25 16.199 9.15972 16.3934 8.97917 16.5462C8.79861 16.699 8.59028 16.7407 8.35417 16.6712ZM11.625 16.6921C11.4028 16.7615 11.2014 16.7164 11.0208 16.5566C10.8403 16.3969 10.75 16.199 10.75 15.9629C10.75 15.7962 10.8056 15.6504 10.9167 15.5254C11.0278 15.4004 11.1597 15.3101 11.3125 15.2546C12.2708 14.9629 13.0417 14.4178 13.625 13.6191C14.2083 12.8205 14.5 11.9212 14.5 10.9212C14.5 9.67122 14.059 8.6122 13.1771 7.74414C12.2951 6.87609 11.2222 6.44206 9.95833 6.44206H9.89583L10.2292 6.77539C10.3819 6.92817 10.4514 7.10178 10.4375 7.29622C10.4236 7.49067 10.3403 7.66428 10.1875 7.81706C10.0347 7.96984 9.85764 8.04622 9.65625 8.04622C9.45486 8.04622 9.28472 7.96984 9.14583 7.81706L7.54167 6.23372C7.47222 6.16428 7.42014 6.07747 7.38542 5.97331C7.35069 5.86914 7.33333 5.7615 7.33333 5.65039C7.33333 5.55317 7.35417 5.45942 7.39583 5.36914C7.4375 5.27886 7.49306 5.199 7.5625 5.12956L9.1875 3.50456C9.34028 3.35178 9.51389 3.27539 9.70833 3.27539C9.90278 3.27539 10.0764 3.35178 10.2292 3.50456C10.3819 3.65734 10.4549 3.83442 10.4479 4.03581C10.441 4.2372 10.3681 4.41428 10.2292 4.56706L9.89583 4.94206H9.95833C11.6389 4.94206 13.066 5.52192 14.2396 6.68164C15.4132 7.84136 16 9.25456 16 10.9212C16 12.2684 15.5972 13.4768 14.7917 14.5462C13.9861 15.6157 12.9306 16.3309 11.625 16.6921Z" fill="#A0A09F"/>
</svg>
