<svg width="18" height="18" viewBox="0 0 18 18" fill="none" xmlns="http://www.w3.org/2000/svg">
<mask id="mask0_4975_8017" style="mask-type:alpha" maskUnits="userSpaceOnUse" x="0" y="0" width="18" height="18">
<rect width="18" height="18" fill="#D9D9D9"/>
</mask>
<g mask="url(#mask0_4975_8017)">
<path d="M9.02106 12.0377C9.96959 12.0377 10.7751 11.6995 11.4376 11.023C12.1001 10.3465 12.4313 9.53402 12.4313 8.58548C12.4313 7.63696 12.0994 6.83145 11.4354 6.16895C10.7714 5.50645 9.96517 5.1752 9.01663 5.1752C8.06811 5.1752 7.25635 5.50718 6.58135 6.17116C5.90635 6.83512 5.56885 7.64137 5.56885 8.58991C5.56885 9.54885 5.90448 10.3632 6.57574 11.033C7.247 11.7028 8.06211 12.0377 9.02106 12.0377ZM9.01885 10.6314C8.45114 10.6314 7.96859 10.4327 7.5712 10.0353C7.1738 9.63796 6.9751 9.15541 6.9751 8.5877C6.9751 8.03041 7.1738 7.55671 7.5712 7.1666C7.96859 6.7765 8.45114 6.58145 9.01885 6.58145C9.57614 6.58145 10.0498 6.7765 10.4399 7.1666C10.83 7.55671 11.0251 8.03041 11.0251 8.5877C11.0251 9.15541 10.83 9.63796 10.4399 10.0353C10.0498 10.4327 9.57614 10.6314 9.01885 10.6314ZM9.0001 14.2502C7.2501 14.2502 5.65635 13.7877 4.21885 12.8627C2.78135 11.9377 1.7001 10.6939 0.975098 9.13145C0.950098 9.06895 0.928223 8.99082 0.909473 8.89707C0.890723 8.80332 0.881348 8.70645 0.881348 8.60645C0.881348 8.50645 0.890723 8.40957 0.909473 8.31582C0.928223 8.22207 0.950098 8.14395 0.975098 8.08145C1.7001 6.51895 2.7833 5.27832 4.2247 4.35957C5.66609 3.44082 7.25789 2.98145 9.0001 2.98145C10.7423 2.98145 12.3341 3.44082 13.7755 4.35957C15.2169 5.27832 16.3001 6.51895 17.0251 8.08145C17.0501 8.14395 17.072 8.22207 17.0907 8.31582C17.1095 8.40957 17.1188 8.50645 17.1188 8.60645C17.1188 8.70645 17.1095 8.80332 17.0907 8.89707C17.072 8.99082 17.0501 9.06895 17.0251 9.13145C16.3001 10.6939 15.2188 11.9377 13.7813 12.8627C12.3438 13.7877 10.7501 14.2502 9.0001 14.2502Z" fill="#FD6B36"/>
</g>
</svg>
